#include "melody_struct.h"

const PROGMEM melody_note_t HarryPotter_notes[62] = {
{ NOTE_B5, 100 },  
{ NOTE_E6, 150 }, 
{ NOTE_G6, 50 }, 
{ NOTE_FS6, 100 }, 
{ NOTE_E6, 200 }, 
{ NOTE_B6, 100 },  
{ NOTE_A6, 300 }, 
{ NOTE_FS6, 300 },  
{ NOTE_E6, 150 }, 
{ NOTE_G6, 50 }, 
{ NOTE_FS6, 100 }, 
{ NOTE_D6, 200 }, 
{ NOTE_F6, 100 },  
{ NOTE_B5, 425 }, 
{ NOTE_B5, 175 },  
{ NOTE_E6, 150 }, 
{ NOTE_G6, 50 }, 
{ NOTE_FS6, 100 }, 
{ NOTE_E6, 200 }, 
{ NOTE_B6, 100 },  
{ NOTE_D7, 200 }, 
{ NOTE_CS7, 100 }, 
{ NOTE_C7, 200 }, 
{ NOTE_GS6, 100 },  
{ NOTE_C7, 150 }, 
{ NOTE_B6, 50 }, 
{ NOTE_AS6, 100 }, 
{ NOTE_FS6, 200 }, 
{ NOTE_G6, 100 },  
{ NOTE_E6, 425 }, 
{ NOTE_E6, 75 }, 
{ NOTE_G6, 100 },  
{ NOTE_B6, 200 }, 
{ NOTE_G6, 100 }, 
{ NOTE_B6, 200 }, 
{ NOTE_G6, 100 },  
{ NOTE_C7, 200 }, 
{ NOTE_B6, 100 }, 
{ NOTE_AS6, 200 }, 
{ NOTE_FS6, 100 },  
{ NOTE_G6, 150 }, 
{ NOTE_B6, 50 }, 
{ NOTE_AS6, 100 }, 
{ NOTE_AS5, 200 }, 
{ NOTE_B5, 100 },  
{ NOTE_B6, 425 }, 
{ NOTE_B6, 75 }, 
{ NOTE_G6, 100 },  
{ NOTE_B6, 200 }, 
{ NOTE_G6, 100 }, 
{ NOTE_B6, 200 }, 
{ NOTE_G6, 100 },  
{ NOTE_D7, 200 }, 
{ NOTE_CS7, 100 }, 
{ NOTE_C7, 200 }, 
{ NOTE_GS6, 100 },  
{ NOTE_C7, 150 }, 
{ NOTE_B6, 50 }, 
{ NOTE_AS6, 100 }, 
{ NOTE_FS6, 200 }, 
{ NOTE_G6, 100 },  
{ NOTE_E6, 600 }, 

};

const melody_t melody_HarryPotter = {
  .notes  = HarryPotter_notes,
  .size   = 62,
  .bpm    = 90,
};
