#include "melody_struct.h"

// -------------------------------------------
// ค่า Raw Duration ของ Note  ( Note Duration)
// -------------------------------------------
// whole note  (โนตตัวกลม)      = 800 durations
// haft note   (โนตตัวขาว)      = 400 durations
// quarter note (โนตตัวดำ)      = 200 durations
// eighth note (โนตเขบ็ต 1 ชั้น)  = 100 durations
// sixteenth note(โนตเขบ็ต 2 ชั้น)= 50 durations

// -------------------------------------------
// BPM :  ค่า Beat ต่อ นาที ของ Quarter Note  
// -------------------------------------------
// BPM 135   // คือ ค่า จน.ครั้ง beat ต่อนาทีของโน้ตตัวดำ

// -------------------------------------------
// สูตรค่า True Duration  (ms มิลลิวินาที)
// -------------------------------------------
// สูตร ระยะเวลาที่ Note ตัวนึงๆจะเล่นนานจริง 
// โดยคำนวณ จากค่า Raw Duration และ BPM ที่กำหนด
//
// True_Duration = Raw_Duration * 60000ms/ (200*BPM)  [ms]
//
//  - หาก BPM ยิ่ง มาก  โน้ตแต่ละตัวเวลา play ระยะเวลาจะสั้นลง
//  - หาก BPM ยิ่ง น้อย  โน้ตแต่ละตัวเวลา play ระยะเวลาจะสั้นยาวขึ้น
//

const PROGMEM melody_note_t demonslayer_notes[278] ={
{NOTE_G5, 150},  // โนต, Raw Duration
{NOTE_FS5, 150},
{NOTE_G5, 400},
{NOTE_NO, 100},
{NOTE_G5, 150},
{NOTE_FS5, 150},
{NOTE_G5, 400},
{NOTE_NO, 100},
{NOTE_G5, 150},
{NOTE_FS5, 150},
{NOTE_E5, 300},
{NOTE_D5, 100},
{NOTE_D5, 500},
{NOTE_NO, 100},
{NOTE_B4, 200},
{NOTE_D5, 100},
{NOTE_E5, 400},
{NOTE_NO, 100},
{NOTE_E5, 200},
{NOTE_G5, 100},
{NOTE_A5, 400},
{NOTE_NO, 100},
{NOTE_G5, 200},
{NOTE_A5, 100},
{NOTE_B5, 150},
{NOTE_D5, 150},
{NOTE_E5, 150},
{NOTE_D5, 150},
{NOTE_E5, 200},
{NOTE_E5, 150},
{NOTE_D5, 150},
{NOTE_E5, 150},
{NOTE_D5, 150},
{NOTE_E5, 200},
{NOTE_E5, 150},
{NOTE_D5, 150},
{NOTE_E5, 150},
{NOTE_D5, 150},
{NOTE_E5, 200},
{NOTE_E5, 150},
{NOTE_D5, 150},
{NOTE_E5, 150},
{NOTE_D5, 150},
{NOTE_E5, 200},
{NOTE_E5, 150},
{NOTE_G5, 150},
{NOTE_FS5, 200},
{NOTE_D5, 100},
{NOTE_E5, 100},
{NOTE_D5, 500},
{NOTE_A4, 100},
{NOTE_G4, 100},
{NOTE_A4, 100},
{NOTE_C5, 100},
{NOTE_B4, 100},
{NOTE_E4, 600},
{NOTE_NO, 200},
{NOTE_E4, 100},
{NOTE_G4, 50},
{NOTE_A4, 50},
{NOTE_NO, 50},
{NOTE_B4, 150},
{NOTE_A4, 100},
{NOTE_B4, 100},
{NOTE_D5, 100},
{NOTE_E5, 150},
{NOTE_G5, 150},
{NOTE_FS5, 200},
{NOTE_D5, 100},
{NOTE_E5, 100},
{NOTE_D5, 500},
{NOTE_B5, 100},
{NOTE_A5, 100},
{NOTE_B5, 100},
{NOTE_C6, 100},
{NOTE_B5, 100},
{NOTE_G5, 600},
{NOTE_G5, 100},
{NOTE_FS5, 150},
{NOTE_FS5, 150},
{NOTE_G5, 100},
{NOTE_A5, 200},
{NOTE_NO, 100},
{NOTE_G5, 100},
{NOTE_A5, 150},
{NOTE_G5, 150},
{NOTE_E5, 150},
{NOTE_G5, 150},
{NOTE_B5, 150},
{NOTE_A5,  50},
{NOTE_NO, 100},
{NOTE_A5, 100},
{NOTE_A5, 100},
{NOTE_A5, 100},
{NOTE_A5, 150},
{NOTE_B5, 150},
{NOTE_G5, 100},
{NOTE_A5, 150},
{NOTE_G5, 150},
{NOTE_E5, 150},
{NOTE_G5, 150},
{NOTE_D6, 200},
{NOTE_NO, 100},
{NOTE_A5, 100},
{NOTE_A5, 100},
{NOTE_A5, 100},
{NOTE_A5, 150},
{NOTE_FS5,150},
{NOTE_G5, 100},
{NOTE_A5, 150},
{NOTE_G5, 150},
{NOTE_E5, 200},
{NOTE_G5, 100},
{NOTE_B5, 100},
{NOTE_A5, 100},
{NOTE_NO, 200},
{NOTE_A5, 100},
{NOTE_B5, 100},
{NOTE_A5, 100},
{NOTE_B5, 100},
{NOTE_D6, 100},
{NOTE_B5, 100},
{NOTE_A5, 150},
{NOTE_G5, 550},
{NOTE_G5, 100},
{NOTE_FS5,150},
{NOTE_FS5,150},
{NOTE_G5, 100},
{NOTE_A5, 200},
{NOTE_NO, 200},
{NOTE_G5, 150},
{NOTE_FS5,150},
{NOTE_G5, 400},
{NOTE_NO, 100},
{NOTE_G5, 150},
{NOTE_FS5,150},
{NOTE_G5, 400},
{NOTE_NO, 100},
{NOTE_G5, 150},
{NOTE_FS5,150},
{NOTE_E5, 300},
{NOTE_D5, 100},
{NOTE_D5, 500},
{NOTE_NO, 100},
{NOTE_B4, 200},
{NOTE_D5, 100},
{NOTE_E5, 400},
{NOTE_NO, 100},
{NOTE_E5, 200},
{NOTE_G5, 100},
{NOTE_A5, 400},
{NOTE_NO, 100},
{NOTE_G5, 200},
{NOTE_A5, 100},
{NOTE_B5, 100},
{NOTE_A4, 100},
{NOTE_B4, 100},
{NOTE_D5, 100},
{NOTE_E5, 100},
{NOTE_FS5,100},
{NOTE_G5, 100},
{NOTE_FS5,100},
{NOTE_NO, 200},
{NOTE_D5, 200},
{NOTE_D5, 200},
{NOTE_B5, 200},
{NOTE_A5, 100},
{NOTE_B5, 100},
{NOTE_D6, 100},
{NOTE_B5, 100},
{NOTE_A5, 100},
{NOTE_B5, 50},
{NOTE_B5, 50},
{NOTE_NO, 100},
{NOTE_G5, 100},
{NOTE_A5, 100},
{NOTE_B5, 100},
{NOTE_D6, 100},
{NOTE_B5, 100},
{NOTE_A5, 100},
{NOTE_B5, 50},
{NOTE_B5, 50},
{NOTE_NO, 100},
{NOTE_D5, 100},
{NOTE_D5, 100},
{NOTE_G5, 50},
{NOTE_G5, 50},
{NOTE_NO, 100},
{NOTE_D5, 100},
{NOTE_D5, 100},
{NOTE_G5, 100},
{NOTE_A5, 100},
{NOTE_G5, 100},
{NOTE_D6, 200},
{NOTE_C6, 200},
{NOTE_B5, 150},
{NOTE_A5, 150},
{NOTE_G5, 100},
{NOTE_G5, 300},
{NOTE_G5, 200},
{NOTE_A5, 100},
{NOTE_B5, 100},
{NOTE_A5, 100},
{NOTE_NO, 300},
{NOTE_A5, 200},
{NOTE_B5, 100},
{NOTE_D6, 100},
{NOTE_B5, 100},
{NOTE_NO, 150},
{NOTE_D5, 150},
{NOTE_E5, 150},
{NOTE_D5, 150},
{NOTE_E5, 200},
{NOTE_NO, 200},
{NOTE_D5, 200},
{NOTE_D5, 200},
{NOTE_B5, 200},
{NOTE_A5, 100},
{NOTE_B5, 100},
{NOTE_D6, 100},
{NOTE_B5, 100},
{NOTE_A5, 100},
{NOTE_B5, 50},
{NOTE_B5, 50},
{NOTE_NO, 100},
{NOTE_G5, 100},
{NOTE_A5, 100},
{NOTE_B5, 100},
{NOTE_D6, 100},
{NOTE_B5, 100},
{NOTE_A5, 100},
{NOTE_B5, 50},
{NOTE_G5, 50},
{NOTE_NO, 100},
{NOTE_G5, 100},
{NOTE_G5, 150},
{NOTE_A5, 150},
{NOTE_B5, 200},
{NOTE_B5, 100},
{NOTE_G6, 100},
{NOTE_FS6,100},
{NOTE_NO, 200},
{NOTE_D6, 200},
{NOTE_B5, 150},
{NOTE_A5, 150},
{NOTE_G5, 100},
{NOTE_G5, 300},
{NOTE_G5, 200},
{NOTE_A5, 100},
{NOTE_B5, 100},
{NOTE_A5, 100},
{NOTE_NO, 300},
{NOTE_A5, 100},
{NOTE_A5, 200},
{NOTE_B5, 200},
{NOTE_E5, 150},
{NOTE_D5, 150},
{NOTE_E5, 150},
{NOTE_D5, 150},
{NOTE_E5, 200},
{NOTE_E5, 150},
{NOTE_D5, 150},
{NOTE_E5, 150},
{NOTE_D5, 150},
{NOTE_E5, 100},
{NOTE_E5, 100},
{NOTE_E5, 150},
{NOTE_D5, 150},
{NOTE_E5, 150},
{NOTE_D5, 150},
{NOTE_E5, 200},
{NOTE_E5, 150},
{NOTE_D5, 150},
{NOTE_E5, 150},
{NOTE_D5, 150},
{NOTE_E5, 100},
{NOTE_E5, 100},
{NOTE_NO, 1600},
};

const melody_t melody_demonslayer = {
  .notes  = demonslayer_notes,
  .size   = 278,
  .bpm    = 135,
};
